<svg xmlns="http://www.w3.org/2000/svg" width="168" height="104" fill="none" viewBox="0 0 168 104">
    <path fill="#000" d="M139.98 25.71c-.69.345-1.294.864-1.984 1.123-2.156.692-3.277 2.249-3.967 4.237-.431 1.297-.689 2.767-1.379 3.978-.777 1.21-1.208 2.507-1.725 3.804-.259.52-.345.952-.604 1.47-.69 1.73-1.466 3.545-2.156 5.275-.776 1.902-1.38 3.804-2.156 5.62-1.293 3.286-2.587 6.485-4.053 9.685-1.552 3.372-3.191 6.744-5.174 9.857-1.898 3.113-4.14 6.053-6.296 9.079-2.07 2.767-4.053 5.62-6.295 8.3-2.588 3.2-5.434 6.227-9.142 8.302-1.725.95-3.536 1.21-5.433.778-1.207-.26-1.983-1.21-2.328-2.335-.345-1.124-.604-2.248-.518-3.458.087-4.15 1.035-8.215 3.019-11.846 1.638-3.027 3.535-5.967 5.433-8.907 1.293-2.075 2.76-4.15 4.14-6.139.948-1.47 1.983-2.853 3.018-4.237 1.034-1.383 2.156-2.767 3.277-4.064 1.121-1.383 2.328-2.68 3.449-4.064.259-.346.518-.95.431-1.297-.603-3.372-.603-6.83-.517-10.29 0-.172-.086-.345-.172-.518-.087-.087-.259-.173-.345-.26-.087.26-.173.433-.259.692-1.984 4.15-4.657 7.869-7.33 11.5 0 .087-.087.087-.087.173-.603.692-1.207 1.384-2.156 1.297-.948-.173-1.293-1.037-1.466-1.902 0-.173-.086-.26-.258-.519-.345.173-.604.346-.863.52-1.121.864-1.983.864-3.018-.087-.69-.692-.863-.692-1.553.173-.43.518-.776 1.124-1.12 1.642-.777 1.038-2.07 1.125-3.105.346-1.121-.864-1.38-2.161-1.639-3.458-.086-.346-.086-.692-.172-1.038-.087 0-.173-.086-.259-.086-.259.346-.604.691-.776 1.124-.431.95-.776 1.902-1.208 2.853-.086.26-.172.519-.344.778-.346.52-.863.865-1.553.606-.69-.26-.776-.865-.69-1.47.173-1.47.345-2.854.431-4.324 0-.173 0-.432-.086-.95-1.207 1.21-2.242 2.247-3.277 3.371-.949.952-1.81 1.99-2.673 3.027-.604.691-1.725.864-2.415.432s-1.035-1.383-.69-2.248c1.121-2.854 2.932-5.275 5.433-7.004.345-.26.949-.26 1.38-.173.776.173 1.294.087 1.984-.346 1.38-.95 2.242-.432 2.414 1.21.086.433.173.865.345 1.384.086 0 .259 0 .345.087.345-.52.604-.951.949-1.47.517-.778.948-1.643 1.552-2.421.172-.26.776-.52 1.035-.433.259.087.517.606.604 1.038.086 1.73.086 3.459.086 5.188 0 .519.086 1.038.172 1.47.26.778.776.865 1.208.26 1.035-1.384 2.07-2.768 2.932-4.324.603-1.038.776-2.248 1.12-3.459.346-1.297.69-2.507.95-3.804.172-.779 0-1.038-.863-.865-1.12.26-2.156.173-3.19-.346-.346-.173-.604-.346-.863-.605-.345-.432-.345-1.038.172-1.297.604-.26 1.294-.519 1.984-.605.604-.087 1.293-.087 1.121.95 1.207-.259 2.242-.432 3.277-.777 4.398-1.47 8.71-3.113 12.936-5.188.776-.346 1.552-.779 1.811-1.816.173-.865.949-1.038 1.552-.433.518.52.949.433 1.553.087 2.414-1.297 4.915-2.421 7.33-3.718 5.519-2.854 10.694-6.226 15.696-9.944 1.034-.778 1.983-1.556 2.845-2.335.345-.259.69-.691.863-1.037 1.725-3.459 3.967-6.658 6.295-9.685.69-.95 1.553-1.729 2.846-1.815 1.466-.173 2.156.432 1.984 1.988-.173 1.73-1.208 3.2-2.329 4.41-1.811 1.902-3.794 3.632-5.692 5.361-.517.432-.948.951-1.293 1.47-1.38 1.902-2.329 4.064-3.191 6.226-.431.95-.949 1.816-1.466 2.68-.431.865-.776 1.643-1.121 2.508-.259.605 0 .864.69.778.517-.087.948-.26 1.466-.346.345-.086.776 0 1.207 0-.172.346-.172.519-.086.605zM88.323 90.04c.172 1.21.258 1.989.43 2.853.604 2.335 2.07 3.2 4.227 2.162 1.638-.778 3.277-1.816 4.57-3.026 2.415-2.075 4.398-4.583 6.382-7.09 1.725-2.249 3.449-4.583 5.174-6.831 1.553-2.162 3.105-4.237 4.571-6.485 2.76-4.237 5.174-8.734 7.244-13.316 1.552-3.46 2.932-7.004 4.398-10.55.776-1.815 1.466-3.718 2.156-5.533.259-.606.431-1.297.604-1.903.086-.173 0-.605-.086-.691-.259-.087-.518 0-.776.086-.173.087-.259.173-.432.26-3.104 2.334-6.209 4.669-9.227 7.09-1.725 1.383-3.277 2.94-4.83 4.41-.431.346-.69.864-1.121 1.297-2.328 2.68-4.743 5.274-6.985 8.128-1.984 2.507-3.708 5.188-5.52 7.782-1.983 2.853-3.967 5.793-5.778 8.733-1.552 2.507-2.932 5.188-3.794 8.041-.517 1.643-.862 3.286-1.207 4.583zm49.07-72.46c-.086-.086-.173-.086-.259-.172-.172.086-.431.086-.604.172-1.207.865-2.328 1.643-3.535 2.508-.518.346-.949.778-1.466 1.038-3.881 2.334-7.59 4.928-11.643 6.917-2.07 1.038-4.139 2.075-6.209 2.94-1.552.605-2.156 1.47-2.156 3.113-.086 2.767-.259 5.447-.345 8.128 0 1.729 0 3.372.172 5.101.087 1.297.777 1.47 1.812.605 1.379-1.124 2.759-2.334 4.225-3.372 3.019-2.248 6.123-4.496 9.142-6.658 2.156-1.556 4.053-3.458 4.915-6.052.086-.26.087-.692-.086-.952-.086-.086-.604-.086-.862 0-.604.087-1.121.346-1.725.433-.345.086-.69-.173-1.035-.26.172-.346.345-.691.517-.95.087-.174.259-.174.432-.26 1.121-.692 2.328-1.384 3.449-1.989.863-.432 1.38-1.124 1.725-1.902.949-1.989 1.811-4.064 2.673-6.14.432-.778.604-1.47.863-2.248zM99.361 48.71v.086c.086.346.259.778.345 1.124.259-.173.69-.346.863-.605.345-.432.689-.951.948-1.383 3.019-3.978 5.52-8.301 6.986-13.144.086-.345.086-.691.086-1.037-.345 0-.69 0-1.121.086-.173 0-.345.087-.518.173-2.587 1.038-5.26 2.076-7.847 3.113-.863.346-1.725.519-2.588.692-.603.173-.862.432-.603 1.124.172.432.172.951.172 1.47-.172 1.038-.431 2.162-.69 3.2-.345 1.383-.604 2.766-.862 4.15-.086.345.172.691.345 1.037.345-.173.776-.26 1.035-.605.603-.865 1.12-1.902 1.638-2.854.259-.518.604-1.037 1.294-.864.69.173.776.778.776 1.383-.086 1.038-.173 1.989-.259 2.854zm49.07-44.617c-1.379.518-2.156 1.47-2.069 2.68 1.207-.519 2.242-1.816 2.069-2.68zM34.51 69.202c-1.294.173-2.502.433-3.795.606-2.933.518-5.865 1.297-8.883 1.642-3.967.433-7.934.346-11.729-1.124C7 69.116 4.24 67.473 2.429 64.62 1.048 62.544.272 60.296.1 57.875c-.518-5.534 1.035-10.549 3.363-15.218 1.466-3.026 3.45-5.88 5.692-8.474 1.81-2.075 3.45-4.237 5.433-6.14 3.363-3.371 6.9-6.484 11.039-8.992 2.5-1.47 4.915-3.113 7.416-4.496 3.191-1.643 6.468-3.2 9.918-4.41 2.673-.951 5.346-1.73 8.106-2.248 2.76-.519 5.433-.865 8.28-.346 3.88.605 6.812 3.718 6.467 7.782-.172 2.162-.604 4.324-1.293 6.312-.95 2.94-2.243 5.707-3.364 8.56-.431 1.125-.948 2.249-1.466 3.286-.259.692-.172 1.038.604 1.21 2.242.606 4.312 1.557 6.123 2.854 1.12.865 1.983 1.989 2.932 3.027.345.432.604.95.862 1.47.604 1.037.604 2.161.518 3.285-.087 2.854-1.294 5.188-3.191 7.09-2.242 2.249-4.657 4.497-7.417 6.14-1.983 1.21-3.967 2.42-6.036 3.372-2.156 1.038-4.399 1.816-6.64 2.68-2.157.779-4.313 1.643-6.469 2.335-1.38.519-2.242 1.643-3.018 2.68-1.035 1.384-1.984 2.94-3.019 4.41-.603.865-1.293 1.557-1.897 2.422-1.552 2.248-3.018 4.496-4.484 6.83-1.121 1.816-2.242 3.632-3.277 5.534-1.035 1.903-2.07 3.978-3.019 5.967-.345.605-.69 1.21-.948 1.902-.432.865-.777 1.816-.949 2.767-.259 1.297-.949 2.594-1.552 3.804-.26.519-.863.952-1.553.606s-.517-1.038-.345-1.557c.518-1.643 1.035-3.199 1.725-4.755 1.294-2.767 2.674-5.448 4.053-8.128.69-1.384 1.38-2.854 2.156-4.237 1.121-1.989 2.329-3.805 3.536-5.707 1.208-1.902 2.501-3.891 3.795-5.793.69-1.038 1.466-1.99 2.242-2.94.259-.346.431-.778.604-1.21-.345-.26-.431-.347-.518-.347zM56.154 8.935v-.087l-3.622.519c-2.932.432-5.778 1.21-8.624 2.248-2.414.865-4.83 1.73-7.071 2.854-2.501 1.21-4.83 2.68-7.244 3.977-3.881 2.162-7.417 4.842-10.78 7.868-3.019 2.681-5.778 5.534-8.193 8.647-2.846 3.545-5.52 7.264-7.072 11.587-1.638 4.41-2.587 8.82-1.38 13.489.604 2.161 1.811 3.977 3.45 5.36 3.536 2.854 7.762 4.065 12.332 3.892 2.329-.087 4.57-.087 6.813-.692 2.415-.605 4.916-1.038 7.33-1.556 1.553-.346 3.019-.865 4.485-1.297.862-.26 1.552-.692 2.07-1.557.603-.95 1.293-1.902 1.983-2.853 1.035-1.47 2.07-2.854 3.105-4.324 1.81-2.767 3.536-5.533 5.347-8.387.086-.173.258-.346.345-.519.862-1.556 1.81-3.026 2.673-4.582l3.622-6.486c.431-.864.259-1.21-.776-1.297-1.552-.172-3.105-.259-4.657-.259-1.811 0-3.622.087-5.433.26-.604 0-1.207.172-1.811.259l-1.035.26c-1.811.259-3.708.259-5.433.691-3.536.865-7.072 1.73-10.435 3.2-1.725.778-3.363 1.556-4.743 2.766-.518.433-.776 1.124-1.035 1.816-.259.778.086 1.47.604 2.075.172.173.086.52.172.865-.259-.086-.517-.086-.776-.173-.172-.087-.345-.26-.604-.346-.776-.346-1.293-1.124-1.207-1.902.172-1.816 1.121-3.2 2.673-4.237 4.485-2.854 9.487-4.323 14.489-5.62 2.5-.692 5.174-.865 7.761-1.297 4.226-.692 8.365-.779 12.591-.173.862.086 1.294-.087 1.639-.779 1.293-2.853 2.587-5.706 3.88-8.646.604-1.384 1.208-2.854 1.553-4.324.43-1.729.862-3.458.948-5.188.087-1.73-.43-3.458-2.07-4.582-1.034-.692-2.07-1.298-3.276-1.298-.863-.086-1.725-.172-2.588-.172zm-14.143 54.82c1.035.173 1.725-.26 2.328-.519 3.191-1.297 6.382-2.594 9.4-4.15 2.502-1.21 4.916-2.68 7.245-4.15 2.673-1.73 5.002-3.892 6.554-6.659.862-1.47 1.38-3.2.69-4.755-.518-1.297-1.466-2.508-2.501-3.546-1.725-1.816-4.053-2.594-6.468-3.199-.776-.173-1.207.087-1.552.778-.432.779-.776 1.557-1.208 2.335-1.293 2.248-2.587 4.41-3.88 6.658-.432.778-.95 1.556-1.467 2.334-1.38 2.335-2.76 4.756-4.225 7.09-1.38 2.249-2.932 4.324-4.398 6.486-.087.346-.26.778-.518 1.297z"/>
    <path fill="#000" d="M149.553 41.273c.258-.173.431-.173.517-.346.949-1.556 1.897-3.112 2.76-4.669.258-.519.431-1.037.776-1.47.259-.26.776-.432 1.035-.432.517.086.603.605.517 1.124-.086.519-.345 1.038-.517 1.556-.432 1.384-.949 2.68-1.294 4.064-.172.865-.172 1.73 0 2.594.259 1.124 1.207 1.384 1.897.52 1.38-1.644 2.76-3.373 2.76-5.708 0-1.556 0-3.199.086-4.755 0-.52.259-1.124.518-1.557.172-.26.69-.605 1.035-.605.345.086.862.519.948.865.173.691.173 1.47.173 2.161 0 .779-.259 1.47-.345 2.162-.087.432 0 .778 0 1.21 1.121-.345 1.897-1.556 2.069-3.026.087-.864.259-1.643.518-2.507.259-.951.862-1.73 1.725-2.162.345-.173.948-.346 1.207-.173.259.173.517.778.431 1.124-.258 1.038-.603 2.162-1.121 3.113-.517.951-.259 1.556.259 2.334.69.952 1.293 1.816 1.897 2.768.604.95.69 1.988.518 3.112-.259 1.124-1.122 1.816-2.156 2.162-1.639.605-3.019.173-3.709-1.038-.517-.864-.517-1.729 0-2.507.173-.26.604-.605.863-.519.258 0 .603.432.69.778.345.865.689 1.21 1.293 1.038.604-.26.949-.865.518-1.643-.432-.865-.949-1.643-1.553-2.421-.517-.605-.776-.519-1.207.173-.776 1.124-1.466 2.334-2.329 3.458-.344.433-1.034.692-1.552 1.038-.517.346-1.035.605-1.38 1.038-.69.691-1.293 1.556-2.069 2.248-1.208 1.038-2.329.864-3.277-.346-.518-.605-.863-1.297-1.467-2.248-.258.519-.431.864-.603 1.297-.173.432-.345.864-.431 1.297-.259.692-.777 1.038-1.467.864-.776-.086-.948-.691-.948-1.296 0-1.211-.086-2.508-.086-3.719 0-.345-.173-.778-.432-1.124-.603 1.643-1.552 3.113-1.293 4.929.086.865-.173 1.383-.863 1.556-.689.173-1.121-.172-1.379-.95-.087-.347-.173-.692-.173-1.038-.086-1.384-.086-2.854-.086-4.237 0-.346-.086-.692-.086-1.038-.087 0-.173-.086-.345-.086-.259.432-.69.778-.863 1.21-.776 1.903-1.552 3.805-2.242 5.707-.259.692-.431 1.21-1.294 1.124-.603-.086-1.034-.605-1.034-1.383.086-1.038.172-2.076.345-3.027.086-.605.258-1.21-.345-1.988-.863.864-1.984 1.297-2.588 2.42-.776 1.384-1.724 2.768-2.673 4.065-.431.605-.949.95-1.725.778-.603-.173-1.121-.951-1.121-1.73 0-.605.086-1.21.173-1.815.69-3.2 2.242-5.967 4.657-8.215.689-.691 1.466-1.21 2.587-1.037.172 0 .258 0 .431-.087 1.638-.346 1.638-.346 2.328 1.297.173.519.259 1.038.518 1.557.086.259.259.432.431.691.259-.173.517-.26.69-.518.172-.26.259-.606.431-.865.259-.519.431-1.038.776-1.556.604-1.125 1.639-1.211 2.329-.087.345.519.431 1.21.69 1.73.086.259.086.518.172.864.863-.519.949-1.297 1.294-1.902.258-.346.345-.865.517-1.297.259-.52.604-.951 1.121-.692.345.173.776.605.776.951.259 1.297.345 2.594.518 3.891.172.346.172.519.259.951zm-18.024 3.632l.258.26c.173-.174.518-.26.604-.433l3.105-5.447c.086-.173 0-.52 0-.779-.259.087-.518.087-.69.26-.173.086-.259.26-.345.432-.863 1.556-1.725 3.113-2.588 4.756-.258.173-.258.605-.344.95zM96.602 27.611c.69 0 .948.346.776.952-.259.95-2.588 2.42-3.622 2.334-.26 0-.604-.26-.69-.519-.173-.432-.345-.864-.259-1.297 0-.259.345-.691.517-.691.95-.26 1.984-.433 2.933-.692.172 0 .258 0 .344-.087z"/>
</svg>
